<?xml version="1.0" encoding="UTF-8"?>
<svg version="1.1" xmlns="http://www.w3.org/2000/svg" width="379" height="379">
<path d="M0 0 C0.99580078 0.79277344 0.99580078 0.79277344 2.01171875 1.6015625 C3.37745223 2.69032905 4.6965142 3.83743159 6 5 C6 5.66 6 6.32 6 7 C6.66 7 7.32 7 8 7 C8 7.66 8 8.32 8 9 C8.66 9 9.32 9 10 9 C10 9.66 10 10.32 10 11 C10.66 11 11.32 11 12 11 C44.19921048 42.43007107 63.32909927 90.87612608 64.16796875 135.3828125 C64.2545928 148.04668939 64.23262652 160.51098857 62 173 C61.84934082 173.8544873 61.69868164 174.70897461 61.54345703 175.58935547 C56.1717927 204.98644646 44.72792791 233.48847782 26 257 C25.21753906 257.99 24.43507813 258.98 23.62890625 260 C21.45448077 262.69878103 19.24102468 265.35642089 17 268 C16.32453125 268.81082031 15.6490625 269.62164062 14.953125 270.45703125 C11.41080042 274.636096 11.41080042 274.636096 10 276 C9.34 276 8.68 276 8 276 C8 276.66 8 277.32 8 278 C6.671875 279.375 6.671875 279.375 4.75 281 C4.01394531 281.62261719 3.27789062 282.24523437 2.51953125 282.88671875 C1.68808594 283.58410156 0.85664063 284.28148437 0 285 C-0.88300781 285.76957031 -1.76601563 286.53914063 -2.67578125 287.33203125 C-29.0781267 310.01875569 -60.84744871 323.9783829 -95 330 C-95.73460449 330.13132324 -96.46920898 330.26264648 -97.22607422 330.39794922 C-116.28426381 333.63253365 -136.98020019 333.40011776 -156 330 C-156.8544873 329.84934082 -157.70897461 329.69868164 -158.58935547 329.54345703 C-193.32161948 323.19690853 -222.82114731 308.13929561 -250 286 C-250.80179687 285.35417969 -251.60359375 284.70835937 -252.4296875 284.04296875 C-253.99840662 282.74830297 -255.50951908 281.384018 -257 280 C-257 279.34 -257 278.68 -257 278 C-257.66 278 -258.32 278 -259 278 C-259 277.34 -259 276.68 -259 276 C-259.66 276 -260.32 276 -261 276 C-261 275.34 -261 274.68 -261 274 C-261.66 274 -262.32 274 -263 274 C-294.96317093 242.80033023 -314.15697372 194.64826153 -315.203125 150.453125 C-315.75141621 100.02081069 -300.51496528 55.74807127 -268 17 C-267.47148437 16.33613281 -266.94296875 15.67226563 -266.3984375 14.98828125 C-265.30967095 13.62254777 -264.16256841 12.3034858 -263 11 C-262.34 11 -261.68 11 -261 11 C-260.34 9.68 -259.68 8.36 -259 7 C-258.34 7 -257.68 7 -257 7 C-257 6.34 -257 5.68 -257 5 C-254.57547004 2.41734853 -251.73036114 0.24972064 -249 -2 C-248.00484375 -2.83144531 -247.0096875 -3.66289063 -245.984375 -4.51953125 C-173.5481685 -63.94938567 -70.47243793 -59.13607561 0 0 Z M-208 -8 C-208.63244629 -7.65211426 -209.26489258 -7.30422852 -209.91650391 -6.94580078 C-235.68530838 7.40669419 -256.40533055 28.101892 -272 53 C-272.93779297 54.45792969 -272.93779297 54.45792969 -273.89453125 55.9453125 C-297.23380027 93.77284106 -302.17696438 141.39628091 -292.25390625 184.171875 C-288.66977531 198.53184361 -283.15865931 212.07048284 -276 225 C-275.65211426 225.63244629 -275.30422852 226.26489258 -274.94580078 226.91650391 C-269.50472963 236.68553005 -263.08271859 245.36689104 -256 254 C-255.27425781 254.95648438 -254.54851562 255.91296875 -253.80078125 256.8984375 C-253.20652344 257.59195312 -252.61226562 258.28546875 -252 259 C-251.34 259 -250.68 259 -250 259 C-249.7525 259.5775 -249.505 260.155 -249.25 260.75 C-247.81700012 263.32939979 -246.21575324 265.06121592 -244 267 C-243.34 267 -242.68 267 -242 267 C-242 267.66 -242 268.32 -242 269 C-209.27747471 299.98622803 -163.89439565 315.25966541 -119.29150391 314.09326172 C-86.83163223 312.77218022 -53.10876861 302.79512613 -27 283 C-26.45617676 282.59313965 -25.91235352 282.1862793 -25.35205078 281.76708984 C-12.83350061 272.36336958 -1.6061226 262.44043793 8 250 C8.81210937 249.00355469 9.62421875 248.00710938 10.4609375 246.98046875 C17.02398693 238.8602143 22.21685181 230.26857202 27 221 C27.35336426 220.31921387 27.70672852 219.63842773 28.07080078 218.93701172 C38.98249777 197.63226324 45.2909935 173.98291546 46 150 C46.03996094 148.87335938 46.07992188 147.74671875 46.12109375 146.5859375 C46.67434248 116.1898015 39.73437303 86.6122916 25 60 C24.47817139 59.05133057 24.47817139 59.05133057 23.94580078 58.08349609 C18.50472963 48.31446995 12.08271859 39.63310896 5 31 C4.27425781 30.04351562 3.54851562 29.08703125 2.80078125 28.1015625 C2.20652344 27.40804687 1.61226563 26.71453125 1 26 C0.34 26 -0.32 26 -1 26 C-1.2475 25.4225 -1.495 24.845 -1.75 24.25 C-3.18299988 21.67060021 -4.78424676 19.93878408 -7 18 C-7.66 18 -8.32 18 -9 18 C-9 17.34 -9 16.68 -9 16 C-41.72252529 -14.98622803 -87.10560435 -30.25966541 -131.70849609 -29.09326172 C-158.62145761 -27.99793343 -184.42822879 -21.05093433 -208 -8 Z " fill="#272464" transform="translate(315,47)"/>
<path d="M0 0 C0.33 0 0.66 0 1 0 C0.33707255 26.81842864 -12.53325872 54.11482551 -31.625 72.55078125 C-36.79065785 77.4429631 -42.05826119 82.21866285 -47.4375 86.875 C-48.62756163 87.91373914 -49.81514905 88.95532115 -51 90 C-51.639375 90.56074219 -52.27875 91.12148437 -52.9375 91.69921875 C-74.53644067 111.82166933 -77.52205315 140.83422609 -78.5625 168.6875 C-78.60568359 169.78255859 -78.64886719 170.87761719 -78.69335938 172.00585938 C-78.79808269 174.67048597 -78.90025779 177.33518311 -79 180 C-79.33 180 -79.66 180 -80 180 C-89.59289067 96.59689975 -89.59289067 96.59689975 -65.05078125 63.23828125 C-58.12485866 55.2217609 -48.34779348 50.4049621 -39.0625 45.6875 C-18.81333713 34.99213783 -8.17741632 21.10094093 0 0 Z " fill="#007940" transform="translate(289,74)"/>
<path d="M0 0 C1.10748945 3.28910466 0.91396716 5.06010832 -0.3359375 8.2734375 C-0.65344971 9.09142822 -0.97096191 9.90941895 -1.2980957 10.75219727 C-1.83116333 12.05048462 -1.83116333 12.05048462 -2.375 13.375 C-2.74004639 14.26823975 -3.10509277 15.16147949 -3.48120117 16.08178711 C-11.72068922 35.60171444 -24.08703723 48.21832134 -42.56640625 58.5546875 C-51.53424457 63.59799018 -59.9325726 68.36662626 -67 76 C-67.639375 76.68191406 -68.27875 77.36382812 -68.9375 78.06640625 C-83.31742232 94.89463431 -84.81725609 118.97725911 -87 140 C-87.33 140 -87.66 140 -88 140 C-88.70513556 76.02250854 -88.70513556 76.02250854 -78 57 C-77.64292969 56.34257813 -77.28585938 55.68515625 -76.91796875 55.0078125 C-68.88437022 41.19754613 -58.14585726 34.27838876 -43 30 C-41.10720906 29.51644027 -39.2143729 29.03302303 -37.31982422 28.55639648 C-19.69820758 24.08131106 -9.3551494 15.44383602 0 0 Z " fill="#272464" transform="translate(287,59)"/>
<path d="M0 0 C5.32125 -0.103125 10.6425 -0.20625 16.125 -0.3125 C17.79320801 -0.35802002 19.46141602 -0.40354004 21.18017578 -0.45043945 C22.5185343 -0.46505725 23.85691523 -0.47779487 25.1953125 -0.48828125 C26.21806274 -0.526651 26.21806274 -0.526651 27.26147461 -0.5657959 C31.11646978 -0.56927639 33.47924155 0.01977125 36.42529297 2.40551758 C39.22408201 5.2258031 39.90594944 5.94193125 40.25 9.8125 C39.96929042 13.39154719 39.12271416 15.14250017 37 18 C36.01 18.495 36.01 18.495 35 19 C35.969375 19.78375 36.93875 20.5675 37.9375 21.375 C39.83962346 22.91288705 40.89629957 23.79259913 42 26 C42.40710593 30.23390162 42.25575965 32.51588352 40.25 36.3125 C36.57450696 40.70267224 33.55218109 41.21761346 28 42 C25.76414641 42.07806517 23.52625496 42.1079186 21.2890625 42.09765625 C20.16709473 42.09515869 19.04512695 42.09266113 17.88916016 42.09008789 C16.4819873 42.08098389 15.07481445 42.07187988 13.625 42.0625 C6.880625 42.0315625 6.880625 42.0315625 0 42 C0 28.14 0 14.28 0 0 Z M15 9 C15 11.31 15 13.62 15 16 C20.36090593 16.53673893 20.36090593 16.53673893 25 14.5 C25.33 14.005 25.66 13.51 26 13 C25.34 11.68 24.68 10.36 24 9 C21.03 9 18.06 9 15 9 Z M15 24 C15 26.64 15 29.28 15 32 C16.62490954 32.02698189 18.24994633 32.04638757 19.875 32.0625 C21.23238281 32.07990234 21.23238281 32.07990234 22.6171875 32.09765625 C25.0168585 32.16249257 25.0168585 32.16249257 27 31 C27 29.35 27 27.7 27 26 C22.8794254 24.00214565 19.54805635 23.82164485 15 24 Z " fill="#282669" transform="translate(60,226)"/>
<path d="M0 0 C5.341875 -0.061875 10.68375 -0.12375 16.1875 -0.1875 C17.86481201 -0.21481201 19.54212402 -0.24212402 21.27026367 -0.27026367 C22.61115806 -0.27903182 23.95206047 -0.28667498 25.29296875 -0.29296875 C26.32339294 -0.3159906 26.32339294 -0.3159906 27.37463379 -0.33947754 C32.78699179 -0.34240895 35.84417084 1.06718765 39.8125 4.625 C41.68550902 8.37101803 41.7802482 11.90724354 41 16 C39.5846624 18.4794618 38.08106597 19.96848322 36 22 C35.34 22.66 34.68 23.32 34 24 C34.70125 24.7425 35.4025 25.485 36.125 26.25 C40.05508775 30.91205251 42.41995866 36.52073694 45 42 C30.72270569 43.37346893 30.72270569 43.37346893 26.70703125 40.171875 C25.20413574 37.83833029 24.06878053 35.55820559 23 33 C22.38125 32.030625 21.7625 31.06125 21.125 30.0625 C20 28 20 28 20 26 C18.35 25.67 16.7 25.34 15 25 C15 30.61 15 36.22 15 42 C10.05 42 5.1 42 0 42 C0 28.14 0 14.28 0 0 Z M15 9 C15 11.31 15 13.62 15 16 C16.62463842 16.05395478 18.24978541 16.09277195 19.875 16.125 C20.77992188 16.14820313 21.68484375 16.17140625 22.6171875 16.1953125 C25.18806994 16.24324836 25.18806994 16.24324836 27 14 C26.59471099 11.21762345 26.59471099 11.21762345 25 9 C23.31391034 8.92794489 21.62499341 8.91613932 19.9375 8.9375 C19.01839844 8.94652344 18.09929687 8.95554688 17.15234375 8.96484375 C16.44207031 8.97644531 15.73179687 8.98804688 15 9 Z " fill="#282669" transform="translate(153,226)"/>
<path d="M0 0 C4.62 0 9.24 0 14 0 C14.33 4.29 14.66 8.58 15 13 C16.81556788 11.21135158 18.62751622 9.41928379 20.4375 7.625 C20.95376953 7.11710938 21.47003906 6.60921875 22.00195312 6.0859375 C24.857133 3.31431064 24.857133 3.31431064 27 0 C33.6 0 40.2 0 47 0 C40.25 7.875 40.25 7.875 36.125 11.4375 C34.95324219 12.45650391 34.95324219 12.45650391 33.7578125 13.49609375 C33.17773438 13.99238281 32.59765625 14.48867187 32 15 C35.58830398 21.92913872 39.83035366 28.23839408 44.34106445 34.58984375 C44.8124585 35.26015625 45.28385254 35.93046875 45.76953125 36.62109375 C46.41305542 37.52492798 46.41305542 37.52492798 47.06958008 38.44702148 C48 40 48 40 48 42 C42.06 42 36.12 42 30 42 C28.68 39.73125 27.36 37.4625 26 35.125 C25.58234375 34.41230957 25.1646875 33.69961914 24.734375 32.96533203 C22 28.22222222 22 28.22222222 22 26 C18.10736071 28.04951467 18.10736071 28.04951467 15 31 C14.06503972 34.78233932 14.04745171 38.06150845 14 42 C9.38 42 4.76 42 0 42 C0 28.14 0 14.28 0 0 Z " fill="#007940" transform="translate(223,226)"/>
<path d="M0 0 C4.95 0 9.9 0 15 0 C15.03738281 2.07023438 15.07476562 4.14046875 15.11328125 6.2734375 C15.16194838 8.2757421 15.21071829 10.27804571 15.26245117 12.28027344 C15.29572873 13.67306089 15.32375197 15.06598411 15.34643555 16.45898438 C15.37992689 18.45991378 15.43381305 20.46046921 15.48828125 22.4609375 C15.51446533 23.66540527 15.54064941 24.86987305 15.56762695 26.11083984 C15.71031006 27.0642627 15.85299316 28.01768555 16 29 C19.46998729 31.31332486 20.92509248 31.33957563 25 31 C25.99 30.34 26.98 29.68 28 29 C28.51184645 25.99585431 28.51184645 25.99585431 28.51171875 22.4609375 C28.54716797 21.15898437 28.58261719 19.85703125 28.61914062 18.515625 C28.64224231 17.13542191 28.66502464 15.75521343 28.6875 14.375 C28.72066445 12.98694648 28.7551533 11.59892393 28.79101562 10.2109375 C28.87373602 6.807584 28.93853655 3.40380374 29 0 C33.95 0 38.9 0 44 0 C44.09241972 3.98431666 44.1718666 7.96586315 44.21972656 11.95068359 C44.24946045 13.96347627 44.30031729 15.97592134 44.3515625 17.98828125 C44.44002952 26.79074967 43.96379313 32.69645318 37.8125 39.375 C29.79625673 44.00660723 20.92277373 43.46925481 12 42 C6.62318833 40.24708674 3.67085286 36.93080527 1 32 C-0.17246564 28.49462098 -0.1143686 25.16109248 -0.09765625 21.484375 C-0.09443359 20.23398438 -0.09121094 18.98359375 -0.08789062 17.6953125 C-0.07951172 16.39335937 -0.07113281 15.09140625 -0.0625 13.75 C-0.05798828 12.43257812 -0.05347656 11.11515625 -0.04882812 9.7578125 C-0.03704326 6.50518896 -0.0191079 3.25258876 0 0 Z " fill="#00793F" transform="translate(275,226)"/>
<path d="M0 0 C5.011875 -0.061875 10.02375 -0.12375 15.1875 -0.1875 C16.76039795 -0.21481201 18.3332959 -0.24212402 19.95385742 -0.27026367 C21.20013916 -0.27775635 22.4464209 -0.28524902 23.73046875 -0.29296875 C25.63928833 -0.31653442 25.63928833 -0.31653442 27.58666992 -0.34057617 C31.26412328 0.02635376 33.08877875 0.77024748 36 3 C38.89550431 7.39317896 39.55878366 10.78468583 39 16 C37.40093249 20.15757553 35.85311765 22.7122114 32 25 C26.57364835 26.80878388 20.66885438 26.05200784 15 26 C15 31.28 15 36.56 15 42 C10.05 42 5.1 42 0 42 C0 28.14 0 14.28 0 0 Z M15 9 C15 11.64 15 14.28 15 17 C17.64 17 20.28 17 23 17 C24.19838209 14.67145537 24.19838209 14.67145537 25 12 C24.34 11.01 23.68 10.02 23 9 C21.02252878 8.63702064 21.02252878 8.63702064 18.875 8.8125 C17.59625 8.874375 16.3175 8.93625 15 9 Z " fill="#282669" transform="translate(108,226)"/>
<path d="M0 0 C3.63 0 7.26 0 11 0 C12 5 12 5 12 9 C12.66 9 13.32 9 14 9 C15.32 6.03 16.64 3.06 18 0 C19.65 0 21.3 0 23 0 C23.6509259 1.24735567 24.29551669 2.49801832 24.9375 3.75 C25.29714844 4.44609375 25.65679687 5.1421875 26.02734375 5.859375 C26.95558182 7.90224433 27.53166578 9.81115376 28 12 C24.66666667 11.33333333 21.33333333 10.66666667 18 10 C18 10.66 18 11.32 18 12 C9.96498906 12.63019694 9.96498906 12.63019694 5.9375 10 C5.298125 9.34 4.65875 8.68 4 8 C4 9.32 4 10.64 4 12 C2.68 12 1.36 12 0 12 C0 8.04 0 4.08 0 0 Z M4 2 C4 2.99 4 3.98 4 5 C5.32 4.67 6.64 4.34 8 4 C7.67 3.34 7.34 2.68 7 2 C6.01 2 5.02 2 4 2 Z M20 4 C20 4.99 20 5.98 20 7 C20.66 6.67 21.32 6.34 22 6 C21.34 5.34 20.68 4.68 20 4 Z " fill="#262464" transform="translate(121,280)"/>
<path d="M0 0 C1.65 0 3.3 0 5 0 C6.8125 2 6.8125 2 8 4 C8.66 2.68 9.32 1.36 10 0 C11.65 0 13.3 0 15 0 C15 3.96 15 7.92 15 12 C13.68 12 12.36 12 11 12 C10.67 10.68 10.34 9.36 10 8 C8.68 8.33 7.36 8.66 6 9 C5.34 8.01 4.68 7.02 4 6 C3.67 7.98 3.34 9.96 3 12 C2.01 12 1.02 12 0 12 C0 8.04 0 4.08 0 0 Z " fill="#282464" transform="translate(80,280)"/>
<path d="M0 0 C1.65 0 3.3 0 5 0 C6.8125 2 6.8125 2 8 4 C8.66 2.68 9.32 1.36 10 0 C11.65 0 13.3 0 15 0 C15 3.96 15 7.92 15 12 C13.68 12 12.36 12 11 12 C10.67 10.68 10.34 9.36 10 8 C8.68 8.33 7.36 8.66 6 9 C5.34 8.01 4.68 7.02 4 6 C3.67 7.98 3.34 9.96 3 12 C2.01 12 1.02 12 0 12 C0 8.04 0 4.08 0 0 Z " fill="#272464" transform="translate(284,280)"/>
<path d="M0 0 C1.65 0 3.3 0 5 0 C6.8125 2 6.8125 2 8 4 C8.66 2.68 9.32 1.36 10 0 C11.65 0 13.3 0 15 0 C15 3.96 15 7.92 15 12 C13.68 12 12.36 12 11 12 C10.67 10.68 10.34 9.36 10 8 C8.68 8.33 7.36 8.66 6 9 C5.34 8.01 4.68 7.02 4 6 C3.67 7.98 3.34 9.96 3 12 C2.01 12 1.02 12 0 12 C0 8.04 0 4.08 0 0 Z " fill="#272464" transform="translate(251,280)"/>
<path d="M0 0 C1.32 0 2.64 0 4 0 C4 1.32 4 2.64 4 4 C5.65 4 7.3 4 9 4 C9 2.68 9 1.36 9 0 C10.32 0 11.64 0 13 0 C13 3.96 13 7.92 13 12 C11.68 12 10.36 12 9 12 C9 10.35 9 8.7 9 7 C7.35 7 5.7 7 4 7 C4 8.65 4 10.3 4 12 C2.68 12 1.36 12 0 12 C0 8.04 0 4.08 0 0 Z " fill="#272464" transform="translate(199,280)"/>
<path d="M0 0 C1.32 0 2.64 0 4 0 C4.33 0.99 4.66 1.98 5 3 C5.391875 2.505 5.78375 2.01 6.1875 1.5 C8.55091715 -0.45593143 10.01435003 -0.24207973 13 0 C11.02 2.97 11.02 2.97 9 6 C9.99 6.928125 9.99 6.928125 11 7.875 C13 10 13 10 13 12 C10.75 12.25 10.75 12.25 8 12 C5.6875 10 5.6875 10 4 8 C4 9.32 4 10.64 4 12 C2.68 12 1.36 12 0 12 C0 8.04 0 4.08 0 0 Z " fill="#272463" transform="translate(269,280)"/>
<path d="M0 0 C1.32 0 2.64 0 4 0 C4.33 2.97 4.66 5.94 5 9 C5.99 9 6.98 9 8 9 C8.33 6.03 8.66 3.06 9 0 C10.32 0 11.64 0 13 0 C13.05395478 1.62463842 13.09277195 3.24978541 13.125 4.875 C13.14820313 5.77992188 13.17140625 6.68484375 13.1953125 7.6171875 C13 10 13 10 11 12 C8.90625 12.265625 8.90625 12.265625 6.5 12.25 C5.7059375 12.25515625 4.911875 12.2603125 4.09375 12.265625 C2 12 2 12 0 10 C-0.1953125 7.6171875 -0.1953125 7.6171875 -0.125 4.875 C-0.10695312 3.96492188 -0.08890625 3.05484375 -0.0703125 2.1171875 C-0.04710937 1.41851562 -0.02390625 0.71984375 0 0 Z " fill="#272464" transform="translate(235,280)"/>
<path d="M0 0 C0 0.99 0 1.98 0 3 C-2.64 2.67 -5.28 2.34 -8 2 C-8 2.66 -8 3.32 -8 4 C-5.69 4.33 -3.38 4.66 -1 5 C-0.375 7.375 -0.375 7.375 0 10 C-2 12 -2 12 -4.3828125 12.1953125 C-5.28773438 12.17210937 -6.19265625 12.14890625 -7.125 12.125 C-8.49011719 12.09792969 -8.49011719 12.09792969 -9.8828125 12.0703125 C-10.58148438 12.04710937 -11.28015625 12.02390625 -12 12 C-11.67 10.68 -11.34 9.36 -11 8 C-8.03 8.495 -8.03 8.495 -5 9 C-5.969375 8.5875 -6.93875 8.175 -7.9375 7.75 C-11 6 -11 6 -11.875 3.8125 C-11.91625 3.214375 -11.9575 2.61625 -12 2 C-7.72424275 -1.23921004 -5.16347713 -1.11369115 0 0 Z " fill="#272464" transform="translate(183,280)"/>
<path d="M0 0 C1.65 0 3.3 0 5 0 C6.65 3.63 8.3 7.26 10 11 C5.59232396 12.10191901 4.1077065 11.58706842 0 10 C0 10.66 0 11.32 0 12 C-1.32 12 -2.64 12 -4 12 C-3.33501617 7.61110675 -1.81242323 4.0188515 0 0 Z M2 4 C2 4.99 2 5.98 2 7 C2.66 6.67 3.32 6.34 4 6 C3.34 5.34 2.68 4.68 2 4 Z " fill="#262365" transform="translate(218,280)"/>
<path d="M0 0 C1.65 0 3.3 0 5 0 C6.65 3.96 8.3 7.92 10 12 C8.35 12 6.7 12 5 12 C5 11.34 5 10.68 5 10 C3.35 10 1.7 10 0 10 C0 10.66 0 11.32 0 12 C-1.65 12 -3.3 12 -5 12 C-3.35 8.04 -1.7 4.08 0 0 Z M2 4 C1.67 4.99 1.34 5.98 1 7 C1.99 6.67 2.98 6.34 4 6 C3.34 5.34 2.68 4.68 2 4 Z " fill="#262362" transform="translate(188,280)"/>
<path d="M0 0 C1.32 0 2.64 0 4 0 C4.33 2.97 4.66 5.94 5 9 C5.99 9 6.98 9 8 9 C8.33 6.03 8.66 3.06 9 0 C10.32 0 11.64 0 13 0 C13.05395478 1.62463842 13.09277195 3.24978541 13.125 4.875 C13.14820313 5.77992188 13.17140625 6.68484375 13.1953125 7.6171875 C13 10 13 10 11 12 C8.90625 12.30078125 8.90625 12.30078125 6.5 12.3125 C5.7059375 12.32925781 4.911875 12.34601563 4.09375 12.36328125 C3.4028125 12.24339844 2.711875 12.12351562 2 12 C-0.13586678 8.79619983 -0.23132175 7.98060033 -0.125 4.3125 C-0.10695312 3.50425781 -0.08890625 2.69601562 -0.0703125 1.86328125 C-0.04710937 1.24839844 -0.02390625 0.63351562 0 0 Z " fill="#272464" transform="translate(156,280)"/>
<path d="M0 0 C4.29 0 8.58 0 13 0 C13 0.66 13 1.32 13 2 C11.35 2 9.7 2 8 2 C8 5.3 8 8.6 8 12 C6.68 12 5.36 12 4 12 C4 8.7 4 5.4 4 2 C2.68 2 1.36 2 0 2 C0 1.34 0 0.68 0 0 Z " fill="#272464" transform="translate(107,280)"/>
<path d="M0 0 C2.64 0 5.28 0 8 0 C8 0.66 8 1.32 8 2 C7.34 2 6.68 2 6 2 C6 4.64 6 7.28 6 10 C6.66 10 7.32 10 8 10 C8 10.66 8 11.32 8 12 C5.36 12 2.72 12 0 12 C0 11.34 0 10.68 0 10 C0.66 10 1.32 10 2 10 C2 7.36 2 4.72 2 2 C1.34 2 0.68 2 0 2 C0 1.34 0 0.68 0 0 Z " fill="#272464" transform="translate(98,280)"/>
<path d="" fill="#00A656" transform="translate(0,0)"/>
<path d="" fill="#2A236E" transform="translate(0,0)"/>
</svg>
